<svg width="390" height="315" viewBox="0 0 390 315" fill="none" xmlns="http://www.w3.org/2000/svg">
<path d="M0.98 311V300.92H2.114L5.922 308.949L9.709 300.92H10.857V310.993H9.674V303.657L6.251 311H5.586L2.163 303.657V311H0.98ZM16.0398 311.21C15.2885 311.21 14.6398 311.04 14.0938 310.699C13.5525 310.358 13.1348 309.887 12.8408 309.285C12.5468 308.683 12.3998 307.992 12.3998 307.213C12.3998 306.42 12.5492 305.724 12.8478 305.127C13.1465 304.53 13.5688 304.065 14.1148 303.734C14.6608 303.398 15.3025 303.23 16.0398 303.23C16.7958 303.23 17.4468 303.4 17.9928 303.741C18.5388 304.077 18.9565 304.546 19.2458 305.148C19.5398 305.745 19.6868 306.434 19.6868 307.213C19.6868 308.002 19.5398 308.697 19.2458 309.299C18.9518 309.896 18.5318 310.365 17.9858 310.706C17.4398 311.042 16.7912 311.21 16.0398 311.21ZM16.0398 310.027C16.8238 310.027 17.4072 309.766 17.7898 309.243C18.1725 308.72 18.3638 308.044 18.3638 307.213C18.3638 306.359 18.1702 305.68 17.7828 305.176C17.3955 304.667 16.8145 304.413 16.0398 304.413C15.5125 304.413 15.0785 304.532 14.7378 304.77C14.3972 305.008 14.1428 305.337 13.9748 305.757C13.8068 306.177 13.7228 306.662 13.7228 307.213C13.7228 308.062 13.9188 308.744 14.3108 309.257C14.7028 309.77 15.2792 310.027 16.0398 310.027ZM26.611 311V307.213C26.611 306.854 26.5784 306.508 26.513 306.177C26.4524 305.846 26.3427 305.549 26.184 305.288C26.03 305.022 25.82 304.812 25.554 304.658C25.2927 304.504 24.9614 304.427 24.56 304.427C24.2474 304.427 23.9627 304.481 23.706 304.588C23.454 304.691 23.237 304.849 23.055 305.064C22.873 305.279 22.7307 305.549 22.628 305.876C22.53 306.198 22.481 306.578 22.481 307.017L21.662 306.765C21.662 306.032 21.7927 305.405 22.054 304.882C22.32 304.355 22.691 303.951 23.167 303.671C23.6477 303.386 24.2124 303.244 24.861 303.244C25.351 303.244 25.7687 303.321 26.114 303.475C26.4594 303.629 26.7464 303.834 26.975 304.091C27.2037 304.343 27.3834 304.628 27.514 304.945C27.6447 305.258 27.7357 305.577 27.787 305.904C27.843 306.226 27.871 306.532 27.871 306.821V311H26.611ZM21.221 311V303.44H22.341V305.463H22.481V311H21.221Z" fill="#303030"/>
<path d="M61.577 311V302.103H58.14V300.92H66.26V302.103H62.823V311H61.577ZM69.5473 311.196C69.0619 311.196 68.6443 311.119 68.2943 310.965C67.9489 310.811 67.6619 310.606 67.4333 310.349C67.2046 310.092 67.0249 309.808 66.8943 309.495C66.7636 309.182 66.6703 308.863 66.6143 308.536C66.5629 308.209 66.5373 307.904 66.5373 307.619V303.44H67.7973V307.227C67.7973 307.582 67.8299 307.925 67.8953 308.256C67.9606 308.587 68.0703 308.886 68.2243 309.152C68.3829 309.418 68.5929 309.628 68.8543 309.782C69.1203 309.936 69.4516 310.013 69.8483 310.013C70.1609 310.013 70.4456 309.959 70.7023 309.852C70.9589 309.745 71.1783 309.586 71.3603 309.376C71.5423 309.161 71.6823 308.891 71.7803 308.564C71.8783 308.237 71.9273 307.857 71.9273 307.423L72.7463 307.675C72.7463 308.403 72.6133 309.031 72.3473 309.558C72.0859 310.085 71.7149 310.491 71.2343 310.776C70.7583 311.056 70.1959 311.196 69.5473 311.196ZM72.0673 311V308.977H71.9273V303.44H73.1803V311H72.0673ZM78.4162 311.21C77.6742 311.21 77.0255 311.047 76.4702 310.72C75.9195 310.389 75.4902 309.929 75.1822 309.341C74.8742 308.748 74.7202 308.058 74.7202 307.269C74.7202 306.443 74.8718 305.729 75.1752 305.127C75.4785 304.52 75.9008 304.054 76.4422 303.727C76.9882 303.396 77.6275 303.23 78.3602 303.23C79.1208 303.23 79.7672 303.405 80.2992 303.755C80.8358 304.105 81.2372 304.604 81.5032 305.253C81.7738 305.902 81.8905 306.674 81.8532 307.57H80.5932V307.122C80.5792 306.193 80.3902 305.5 80.0262 305.043C79.6622 304.581 79.1208 304.35 78.4022 304.35C77.6322 304.35 77.0465 304.597 76.6452 305.092C76.2438 305.587 76.0432 306.296 76.0432 307.22C76.0432 308.111 76.2438 308.802 76.6452 309.292C77.0465 309.782 77.6182 310.027 78.3602 310.027C78.8595 310.027 79.2935 309.913 79.6622 309.684C80.0308 309.455 80.3202 309.126 80.5302 308.697L81.7272 309.11C81.4332 309.777 80.9898 310.295 80.3972 310.664C79.8092 311.028 79.1488 311.21 78.4162 311.21ZM75.6232 307.57V306.569H81.2092V307.57H75.6232ZM86.2676 311.203C85.367 311.203 84.6273 311.007 84.0486 310.615C83.4746 310.218 83.1223 309.665 82.9916 308.956L84.2656 308.753C84.3683 309.164 84.604 309.49 84.9726 309.733C85.3413 309.971 85.7986 310.09 86.3446 310.09C86.8626 310.09 87.2686 309.983 87.5626 309.768C87.8566 309.553 88.0036 309.262 88.0036 308.893C88.0036 308.678 87.9546 308.506 87.8566 308.375C87.7586 308.24 87.5556 308.114 87.2476 307.997C86.9443 307.88 86.4846 307.74 85.8686 307.577C85.2013 307.4 84.6763 307.215 84.2936 307.024C83.911 306.833 83.638 306.611 83.4746 306.359C83.3113 306.107 83.2296 305.801 83.2296 305.442C83.2296 304.999 83.351 304.611 83.5936 304.28C83.8363 303.944 84.1746 303.685 84.6086 303.503C85.0473 303.321 85.556 303.23 86.1346 303.23C86.7086 303.23 87.222 303.321 87.6746 303.503C88.1273 303.685 88.4913 303.944 88.7666 304.28C89.0466 304.611 89.2123 304.999 89.2636 305.442L87.9896 305.673C87.929 305.267 87.733 304.947 87.4016 304.714C87.075 304.481 86.6526 304.357 86.1346 304.343C85.6446 304.324 85.2456 304.411 84.9376 304.602C84.6343 304.793 84.4826 305.052 84.4826 305.379C84.4826 305.561 84.5386 305.717 84.6506 305.848C84.7673 305.979 84.9796 306.102 85.2876 306.219C85.6003 306.336 86.053 306.469 86.6456 306.618C87.313 306.786 87.838 306.97 88.2206 307.171C88.608 307.367 88.8833 307.6 89.0466 307.871C89.21 308.137 89.2916 308.466 89.2916 308.858C89.2916 309.586 89.0233 310.16 88.4866 310.58C87.95 310.995 87.2103 311.203 86.2676 311.203Z" fill="#303030"/>
<path d="M123.129 311L120.21 300.92H121.512L123.752 308.893L125.985 300.927L127.294 300.92L129.534 308.893L131.767 300.92H133.076L130.157 311H128.911L126.643 303.097L124.375 311H123.129ZM136.711 311.21C135.969 311.21 135.32 311.047 134.765 310.72C134.214 310.389 133.785 309.929 133.477 309.341C133.169 308.748 133.015 308.058 133.015 307.269C133.015 306.443 133.167 305.729 133.47 305.127C133.773 304.52 134.196 304.054 134.737 303.727C135.283 303.396 135.922 303.23 136.655 303.23C137.416 303.23 138.062 303.405 138.594 303.755C139.131 304.105 139.532 304.604 139.798 305.253C140.069 305.902 140.185 306.674 140.148 307.57H138.888V307.122C138.874 306.193 138.685 305.5 138.321 305.043C137.957 304.581 137.416 304.35 136.697 304.35C135.927 304.35 135.341 304.597 134.94 305.092C134.539 305.587 134.338 306.296 134.338 307.22C134.338 308.111 134.539 308.802 134.94 309.292C135.341 309.782 135.913 310.027 136.655 310.027C137.154 310.027 137.588 309.913 137.957 309.684C138.326 309.455 138.615 309.126 138.825 308.697L140.022 309.11C139.728 309.777 139.285 310.295 138.692 310.664C138.104 311.028 137.444 311.21 136.711 311.21ZM133.918 307.57V306.569H139.504V307.57H133.918ZM144.675 311.21C143.97 311.21 143.366 311.035 142.862 310.685C142.358 310.33 141.968 309.852 141.693 309.25C141.422 308.648 141.287 307.969 141.287 307.213C141.287 306.457 141.422 305.778 141.693 305.176C141.968 304.574 142.358 304.1 142.862 303.755C143.366 303.405 143.968 303.23 144.668 303.23C145.382 303.23 145.981 303.403 146.467 303.748C146.952 304.093 147.318 304.567 147.566 305.169C147.818 305.771 147.944 306.452 147.944 307.213C147.944 307.964 147.818 308.643 147.566 309.25C147.318 309.852 146.952 310.33 146.467 310.685C145.981 311.035 145.384 311.21 144.675 311.21ZM144.829 310.069C145.337 310.069 145.755 309.948 146.082 309.705C146.408 309.458 146.649 309.119 146.803 308.69C146.961 308.256 147.041 307.764 147.041 307.213C147.041 306.653 146.961 306.161 146.803 305.736C146.649 305.307 146.411 304.973 146.089 304.735C145.767 304.492 145.358 304.371 144.864 304.371C144.35 304.371 143.926 304.497 143.59 304.749C143.258 305.001 143.011 305.342 142.848 305.771C142.689 306.2 142.61 306.681 142.61 307.213C142.61 307.75 142.691 308.235 142.855 308.669C143.018 309.098 143.263 309.439 143.59 309.691C143.921 309.943 144.334 310.069 144.829 310.069ZM147.041 311V305.435H146.901V300.92H148.154V311H147.041Z" fill="#303030"/>
<path d="M178.577 311V302.103H175.14V300.92H183.26V302.103H179.823V311H178.577ZM189.758 311V307.213C189.758 306.854 189.725 306.508 189.66 306.177C189.599 305.846 189.489 305.549 189.331 305.288C189.177 305.022 188.967 304.812 188.701 304.658C188.439 304.504 188.108 304.427 187.707 304.427C187.394 304.427 187.109 304.481 186.853 304.588C186.601 304.691 186.384 304.849 186.202 305.064C186.02 305.279 185.877 305.549 185.775 305.876C185.677 306.198 185.628 306.578 185.628 307.017L184.809 306.765C184.809 306.032 184.939 305.405 185.201 304.882C185.467 304.355 185.838 303.951 186.314 303.671C186.794 303.386 187.359 303.244 188.008 303.244C188.498 303.244 188.915 303.321 189.261 303.475C189.606 303.629 189.893 303.834 190.122 304.091C190.35 304.343 190.53 304.628 190.661 304.945C190.791 305.258 190.882 305.577 190.934 305.904C190.99 306.226 191.018 306.532 191.018 306.821V311H189.758ZM184.368 311V300.92H185.488V306.485H185.628V311H184.368ZM195.707 311.196C195.222 311.196 194.804 311.119 194.454 310.965C194.109 310.811 193.822 310.606 193.593 310.349C193.365 310.092 193.185 309.808 193.054 309.495C192.924 309.182 192.83 308.863 192.774 308.536C192.723 308.209 192.697 307.904 192.697 307.619V303.44H193.957V307.227C193.957 307.582 193.99 307.925 194.055 308.256C194.121 308.587 194.23 308.886 194.384 309.152C194.543 309.418 194.753 309.628 195.014 309.782C195.28 309.936 195.612 310.013 196.008 310.013C196.321 310.013 196.606 309.959 196.862 309.852C197.119 309.745 197.338 309.586 197.52 309.376C197.702 309.161 197.842 308.891 197.94 308.564C198.038 308.237 198.087 307.857 198.087 307.423L198.906 307.675C198.906 308.403 198.773 309.031 198.507 309.558C198.246 310.085 197.875 310.491 197.394 310.776C196.918 311.056 196.356 311.196 195.707 311.196ZM198.227 311V308.977H198.087V303.44H199.34V311H198.227ZM201.3 311V303.44H202.413V305.267L202.231 305.029C202.32 304.796 202.434 304.581 202.574 304.385C202.719 304.189 202.88 304.028 203.057 303.902C203.253 303.743 203.475 303.622 203.722 303.538C203.97 303.454 204.222 303.405 204.478 303.391C204.735 303.372 204.975 303.389 205.199 303.44V304.609C204.938 304.539 204.651 304.52 204.338 304.553C204.026 304.586 203.736 304.7 203.47 304.896C203.228 305.069 203.039 305.279 202.903 305.526C202.773 305.773 202.682 306.042 202.63 306.331C202.579 306.616 202.553 306.907 202.553 307.206V311H201.3ZM209.106 311.203C208.205 311.203 207.465 311.007 206.887 310.615C206.313 310.218 205.96 309.665 205.83 308.956L207.104 308.753C207.206 309.164 207.442 309.49 207.811 309.733C208.179 309.971 208.637 310.09 209.183 310.09C209.701 310.09 210.107 309.983 210.401 309.768C210.695 309.553 210.842 309.262 210.842 308.893C210.842 308.678 210.793 308.506 210.695 308.375C210.597 308.24 210.394 308.114 210.086 307.997C209.782 307.88 209.323 307.74 208.707 307.577C208.039 307.4 207.514 307.215 207.132 307.024C206.749 306.833 206.476 306.611 206.313 306.359C206.149 306.107 206.068 305.801 206.068 305.442C206.068 304.999 206.189 304.611 206.432 304.28C206.674 303.944 207.013 303.685 207.447 303.503C207.885 303.321 208.394 303.23 208.973 303.23C209.547 303.23 210.06 303.321 210.513 303.503C210.965 303.685 211.329 303.944 211.605 304.28C211.885 304.611 212.05 304.999 212.102 305.442L210.828 305.673C210.767 305.267 210.571 304.947 210.24 304.714C209.913 304.481 209.491 304.357 208.973 304.343C208.483 304.324 208.084 304.411 207.776 304.602C207.472 304.793 207.321 305.052 207.321 305.379C207.321 305.561 207.377 305.717 207.489 305.848C207.605 305.979 207.818 306.102 208.126 306.219C208.438 306.336 208.891 306.469 209.484 306.618C210.151 306.786 210.676 306.97 211.059 307.171C211.446 307.367 211.721 307.6 211.885 307.871C212.048 308.137 212.13 308.466 212.13 308.858C212.13 309.586 211.861 310.16 211.325 310.58C210.788 310.995 210.048 311.203 209.106 311.203Z" fill="#303030"/>
<path d="M246.98 311V300.92H252.86V302.166H248.226V305.337H252.02V306.583H248.226V311H246.98ZM254.117 311V303.44H255.23V305.267L255.048 305.029C255.136 304.796 255.251 304.581 255.391 304.385C255.535 304.189 255.696 304.028 255.874 303.902C256.07 303.743 256.291 303.622 256.539 303.538C256.786 303.454 257.038 303.405 257.295 303.391C257.551 303.372 257.792 303.389 258.016 303.44V304.609C257.754 304.539 257.467 304.52 257.155 304.553C256.842 304.586 256.553 304.7 256.287 304.896C256.044 305.069 255.855 305.279 255.72 305.526C255.589 305.773 255.498 306.042 255.447 306.331C255.395 306.616 255.37 306.907 255.37 307.206V311H254.117ZM259.479 302.103V300.815H260.725V302.103H259.479ZM259.479 311V303.44H260.725V311H259.479Z" fill="#303030"/>
<path d="M307.557 311.21C306.843 311.21 306.199 311.089 305.625 310.846C305.056 310.603 304.584 310.258 304.211 309.81C303.842 309.357 303.602 308.823 303.49 308.207L304.778 308.004C304.941 308.639 305.28 309.136 305.793 309.495C306.311 309.85 306.92 310.027 307.62 310.027C308.073 310.027 308.481 309.957 308.845 309.817C309.214 309.672 309.505 309.467 309.72 309.201C309.935 308.935 310.042 308.62 310.042 308.256C310.042 308.032 310.002 307.841 309.923 307.682C309.848 307.519 309.743 307.381 309.608 307.269C309.477 307.152 309.328 307.054 309.16 306.975C308.992 306.896 308.817 306.83 308.635 306.779L306.066 306.016C305.786 305.932 305.515 305.827 305.254 305.701C304.993 305.57 304.759 305.409 304.554 305.218C304.349 305.022 304.185 304.789 304.064 304.518C303.943 304.243 303.882 303.918 303.882 303.545C303.882 302.948 304.036 302.439 304.344 302.019C304.657 301.594 305.079 301.27 305.611 301.046C306.143 300.822 306.743 300.712 307.41 300.717C308.087 300.722 308.691 300.843 309.223 301.081C309.76 301.314 310.203 301.65 310.553 302.089C310.908 302.528 311.146 303.053 311.267 303.664L309.944 303.895C309.874 303.484 309.718 303.132 309.475 302.838C309.237 302.539 308.938 302.311 308.579 302.152C308.22 301.989 307.825 301.905 307.396 301.9C306.985 301.895 306.614 301.961 306.283 302.096C305.952 302.231 305.688 302.42 305.492 302.663C305.296 302.901 305.198 303.176 305.198 303.489C305.198 303.797 305.287 304.047 305.464 304.238C305.641 304.425 305.858 304.574 306.115 304.686C306.376 304.793 306.631 304.882 306.878 304.952L308.796 305.505C309.015 305.566 309.267 305.65 309.552 305.757C309.841 305.864 310.121 306.016 310.392 306.212C310.663 306.403 310.887 306.66 311.064 306.982C311.241 307.299 311.33 307.701 311.33 308.186C311.33 308.671 311.232 309.103 311.036 309.481C310.845 309.859 310.576 310.176 310.231 310.433C309.886 310.685 309.484 310.876 309.027 311.007C308.57 311.142 308.08 311.21 307.557 311.21ZM314.947 311.21C314.383 311.21 313.909 311.107 313.526 310.902C313.148 310.692 312.861 310.417 312.665 310.076C312.474 309.735 312.378 309.362 312.378 308.956C312.378 308.559 312.453 308.216 312.602 307.927C312.756 307.633 312.971 307.39 313.246 307.199C313.522 307.003 313.851 306.849 314.233 306.737C314.593 306.639 314.994 306.555 315.437 306.485C315.885 306.41 316.338 306.343 316.795 306.282C317.253 306.221 317.68 306.163 318.076 306.107L317.628 306.366C317.642 305.694 317.507 305.197 317.222 304.875C316.942 304.553 316.457 304.392 315.766 304.392C315.309 304.392 314.908 304.497 314.562 304.707C314.222 304.912 313.981 305.248 313.841 305.715L312.658 305.358C312.84 304.695 313.193 304.175 313.715 303.797C314.238 303.419 314.926 303.23 315.78 303.23C316.466 303.23 317.054 303.354 317.544 303.601C318.039 303.844 318.394 304.212 318.608 304.707C318.716 304.94 318.783 305.195 318.811 305.47C318.839 305.741 318.853 306.025 318.853 306.324V311H317.747V309.187L318.006 309.355C317.722 309.966 317.323 310.428 316.809 310.741C316.301 311.054 315.68 311.21 314.947 311.21ZM315.136 310.167C315.584 310.167 315.972 310.088 316.298 309.929C316.63 309.766 316.896 309.553 317.096 309.292C317.297 309.026 317.428 308.737 317.488 308.424C317.558 308.191 317.596 307.932 317.6 307.647C317.61 307.358 317.614 307.136 317.614 306.982L318.048 307.171C317.642 307.227 317.243 307.281 316.851 307.332C316.459 307.383 316.088 307.439 315.738 307.5C315.388 307.556 315.073 307.624 314.793 307.703C314.588 307.768 314.394 307.852 314.212 307.955C314.035 308.058 313.89 308.191 313.778 308.354C313.671 308.513 313.617 308.711 313.617 308.949C313.617 309.154 313.669 309.35 313.771 309.537C313.879 309.724 314.042 309.875 314.261 309.992C314.485 310.109 314.777 310.167 315.136 310.167ZM324.894 311C324.446 311.089 324.003 311.124 323.564 311.105C323.13 311.091 322.743 311.005 322.402 310.846C322.062 310.683 321.803 310.431 321.625 310.09C321.476 309.791 321.394 309.49 321.38 309.187C321.371 308.879 321.366 308.531 321.366 308.144V301.34H322.612V308.088C322.612 308.396 322.615 308.66 322.619 308.879C322.629 309.098 322.678 309.287 322.766 309.446C322.934 309.745 323.2 309.92 323.564 309.971C323.933 310.022 324.376 310.008 324.894 309.929V311ZM319.833 304.469V303.44H324.894V304.469H319.833Z" fill="#303030"/>
<path d="M365.557 311.21C364.843 311.21 364.199 311.089 363.625 310.846C363.056 310.603 362.584 310.258 362.211 309.81C361.842 309.357 361.602 308.823 361.49 308.207L362.778 308.004C362.941 308.639 363.28 309.136 363.793 309.495C364.311 309.85 364.92 310.027 365.62 310.027C366.073 310.027 366.481 309.957 366.845 309.817C367.214 309.672 367.505 309.467 367.72 309.201C367.935 308.935 368.042 308.62 368.042 308.256C368.042 308.032 368.002 307.841 367.923 307.682C367.848 307.519 367.743 307.381 367.608 307.269C367.477 307.152 367.328 307.054 367.16 306.975C366.992 306.896 366.817 306.83 366.635 306.779L364.066 306.016C363.786 305.932 363.515 305.827 363.254 305.701C362.993 305.57 362.759 305.409 362.554 305.218C362.349 305.022 362.185 304.789 362.064 304.518C361.943 304.243 361.882 303.918 361.882 303.545C361.882 302.948 362.036 302.439 362.344 302.019C362.657 301.594 363.079 301.27 363.611 301.046C364.143 300.822 364.743 300.712 365.41 300.717C366.087 300.722 366.691 300.843 367.223 301.081C367.76 301.314 368.203 301.65 368.553 302.089C368.908 302.528 369.146 303.053 369.267 303.664L367.944 303.895C367.874 303.484 367.718 303.132 367.475 302.838C367.237 302.539 366.938 302.311 366.579 302.152C366.22 301.989 365.825 301.905 365.396 301.9C364.985 301.895 364.614 301.961 364.283 302.096C363.952 302.231 363.688 302.42 363.492 302.663C363.296 302.901 363.198 303.176 363.198 303.489C363.198 303.797 363.287 304.047 363.464 304.238C363.641 304.425 363.858 304.574 364.115 304.686C364.376 304.793 364.631 304.882 364.878 304.952L366.796 305.505C367.015 305.566 367.267 305.65 367.552 305.757C367.841 305.864 368.121 306.016 368.392 306.212C368.663 306.403 368.887 306.66 369.064 306.982C369.241 307.299 369.33 307.701 369.33 308.186C369.33 308.671 369.232 309.103 369.036 309.481C368.845 309.859 368.576 310.176 368.231 310.433C367.886 310.685 367.484 310.876 367.027 311.007C366.57 311.142 366.08 311.21 365.557 311.21ZM373.668 311.196C373.183 311.196 372.765 311.119 372.415 310.965C372.07 310.811 371.783 310.606 371.554 310.349C371.326 310.092 371.146 309.808 371.015 309.495C370.885 309.182 370.791 308.863 370.735 308.536C370.684 308.209 370.658 307.904 370.658 307.619V303.44H371.918V307.227C371.918 307.582 371.951 307.925 372.016 308.256C372.082 308.587 372.191 308.886 372.345 309.152C372.504 309.418 372.714 309.628 372.975 309.782C373.241 309.936 373.573 310.013 373.969 310.013C374.282 310.013 374.567 309.959 374.823 309.852C375.08 309.745 375.299 309.586 375.481 309.376C375.663 309.161 375.803 308.891 375.901 308.564C375.999 308.237 376.048 307.857 376.048 307.423L376.867 307.675C376.867 308.403 376.734 309.031 376.468 309.558C376.207 310.085 375.836 310.491 375.355 310.776C374.879 311.056 374.317 311.196 373.668 311.196ZM376.188 311V308.977H376.048V303.44H377.301V311H376.188ZM384.644 311V307.213C384.644 306.854 384.612 306.508 384.546 306.177C384.486 305.846 384.376 305.549 384.217 305.288C384.063 305.022 383.853 304.812 383.587 304.658C383.326 304.504 382.995 304.427 382.593 304.427C382.281 304.427 381.996 304.481 381.739 304.588C381.487 304.691 381.27 304.849 381.088 305.064C380.906 305.279 380.764 305.549 380.661 305.876C380.563 306.198 380.514 306.578 380.514 307.017L379.695 306.765C379.695 306.032 379.826 305.405 380.087 304.882C380.353 304.355 380.724 303.951 381.2 303.671C381.681 303.386 382.246 303.244 382.894 303.244C383.384 303.244 383.802 303.321 384.147 303.475C384.493 303.629 384.78 303.834 385.008 304.091C385.237 304.343 385.417 304.628 385.547 304.945C385.678 305.258 385.769 305.577 385.82 305.904C385.876 306.226 385.904 306.532 385.904 306.821V311H384.644ZM379.254 311V303.44H380.374V305.463H380.514V311H379.254Z" fill="#303030"/>
<rect opacity="0.2" y="276" width="209.76" height="30" rx="15" transform="rotate(-90 0 276)" fill="#369FFF"/>
<rect opacity="0.2" x="60" y="276" width="187.68" height="30" rx="15" transform="rotate(-90 60 276)" fill="#369FFF"/>
<rect opacity="0.2" x="120" y="276" width="132.48" height="30" rx="15" transform="rotate(-90 120 276)" fill="#369FFF"/>
<rect x="180" y="276" width="276" height="30" rx="15" transform="rotate(-90 180 276)" fill="#369FFF"/>
<rect opacity="0.2" x="240" y="276" width="166.704" height="30" rx="15" transform="rotate(-90 240 276)" fill="#369FFF"/>
<rect opacity="0.2" x="300" y="276" width="231.84" height="30" rx="15" transform="rotate(-90 300 276)" fill="#369FFF"/>
<rect opacity="0.2" x="360" y="276" width="198.72" height="30" rx="15" transform="rotate(-90 360 276)" fill="#369FFF"/>
</svg>
