<svg width="24" height="24" viewBox="0 0 24 24" fill="none" xmlns="http://www.w3.org/2000/svg">
<g clip-path="url(#clip0_501_4233)">
<path d="M1.19922 19.2002V12.0002C1.19922 9.13586 2.33707 6.38884 4.36247 4.36344C6.38786 2.33805 9.13488 1.2002 11.9992 1.2002C14.8636 1.2002 17.6106 2.33805 19.636 4.36344C21.6614 6.38884 22.7992 9.13586 22.7992 12.0002V19.2002" stroke="#8AC53E" stroke-width="2" stroke-linecap="round" stroke-linejoin="round"/>
<path d="M22.7992 20.3999C22.7992 21.0364 22.5464 21.6469 22.0963 22.097C21.6462 22.547 21.0357 22.7999 20.3992 22.7999H19.1992C18.5627 22.7999 17.9522 22.547 17.5022 22.097C17.0521 21.6469 16.7992 21.0364 16.7992 20.3999V16.7999C16.7992 16.1634 17.0521 15.5529 17.5022 15.1028C17.9522 14.6528 18.5627 14.3999 19.1992 14.3999H22.7992V20.3999ZM1.19922 20.3999C1.19922 21.0364 1.45208 21.6469 1.90216 22.097C2.35225 22.547 2.9627 22.7999 3.59922 22.7999H4.79922C5.43574 22.7999 6.04619 22.547 6.49627 22.097C6.94636 21.6469 7.19922 21.0364 7.19922 20.3999V16.7999C7.19922 16.1634 6.94636 15.5529 6.49627 15.1028C6.04619 14.6528 5.43574 14.3999 4.79922 14.3999H1.19922V20.3999Z" stroke="#8AC53E" stroke-width="2" stroke-linecap="round" stroke-linejoin="round"/>
</g>
<defs>
<clipPath id="clip0_501_4233">
<rect width="24" height="24" fill="white"/>
</clipPath>
</defs>
</svg>
